<svg width="20" height="20" viewBox="0 0 20 20" fill="none" xmlns="http://www.w3.org/2000/svg">
<path fill-rule="evenodd" clip-rule="evenodd" d="M3.78543 2.92979C3.39539 2.92979 3.07921 3.24598 3.07921 3.63602V10.9808C3.07921 11.3708 3.3954 11.687 3.78543 11.687H6.75194V8.72116C6.75194 7.55105 7.70051 6.60248 8.87063 6.60248H11.8364V3.63602C11.8364 3.24598 11.5202 2.92979 11.1302 2.92979H3.78543ZM13.2489 6.60248V3.63602C13.2489 2.4659 12.3003 1.51733 11.1302 1.51733H3.78543C2.61532 1.51733 1.66675 2.4659 1.66675 3.63602V10.9808C1.66675 12.1509 2.61531 13.0995 3.78543 13.0995H6.75194V16.0659C6.75194 17.2361 7.70051 18.1846 8.87063 18.1846H12.543H16.2154C17.3855 18.1846 18.3341 17.2361 18.3341 16.0659V8.72116C18.3341 7.55104 17.3855 6.60248 16.2154 6.60248H13.2489ZM10.8476 12.7941V11.7921H11.9475V10.6982H13.1201V11.7921H14.2375V12.7941H13.1201V14.0881H11.9475V12.7941H10.8476ZM8.1644 8.72116C8.1644 8.33112 8.48059 8.01493 8.87063 8.01493H16.2154C16.6054 8.01493 16.9216 8.33112 16.9216 8.72116V16.0659C16.9216 16.456 16.6054 16.7722 16.2154 16.7722H12.543H8.87063C8.48059 16.7722 8.1644 16.456 8.1644 16.0659V8.72116Z" fill="white"/>
</svg>
