<svg width="24" height="25" viewBox="0 0 24 25" fill="none" xmlns="http://www.w3.org/2000/svg">
<g clip-path="url(#clip0_147_6512)">
<path fill-rule="evenodd" clip-rule="evenodd" d="M14.5 18.6839C14.5001 19.1044 14.3413 19.5094 14.0554 19.8177C13.7695 20.126 13.3776 20.3148 12.9583 20.3464L12.8333 20.3505H11.1667C10.7462 20.3507 10.3412 20.1919 10.0329 19.906C9.72455 19.6201 9.5357 19.2282 9.50416 18.8089L9.5 18.6839H14.5ZM12 4.51721C13.5125 4.51719 14.9658 5.10462 16.0535 6.15561C17.1412 7.20659 17.7781 8.63895 17.83 10.1505L17.8333 10.3505V13.4872L19.3517 16.5239C19.4179 16.6564 19.4511 16.803 19.4483 16.9511C19.4455 17.0992 19.4069 17.2444 19.3357 17.3744C19.2645 17.5043 19.1629 17.615 19.0396 17.6971C18.9162 17.7791 18.7748 17.8301 18.6275 17.8455L18.5317 17.8505H5.46833C5.32013 17.8506 5.17413 17.8147 5.04285 17.746C4.91156 17.6772 4.79889 17.5777 4.71451 17.4558C4.63013 17.334 4.57654 17.1935 4.55833 17.0465C4.54013 16.8994 4.55786 16.7501 4.61 16.6114L4.64833 16.5239L6.16666 13.4872V10.3505C6.16666 8.80345 6.78124 7.31972 7.87521 6.22576C8.96917 5.13179 10.4529 4.51721 12 4.51721ZM12 6.18388C10.9263 6.18394 9.89403 6.5985 9.11851 7.3411C8.343 8.08369 7.8841 9.097 7.8375 10.1697L7.83333 10.3505V13.4872C7.83334 13.6939 7.79491 13.8988 7.72 14.0914L7.6575 14.233L6.6825 16.1839H17.3183L16.3433 14.2322C16.2508 14.0474 16.1935 13.8471 16.1742 13.6414L16.1667 13.4872V10.3505C16.1667 9.24548 15.7277 8.18567 14.9463 7.40427C14.1649 6.62287 13.1051 6.18388 12 6.18388Z" fill="#303030"/>
</g>
<defs>
<clipPath id="clip0_147_6512">
<rect width="20" height="20" fill="white" transform="translate(2 2.85059)"/>
</clipPath>
</defs>
</svg>
