<svg width="20" height="20" viewBox="0 0 20 20" fill="none" xmlns="http://www.w3.org/2000/svg">
<path fill-rule="evenodd" clip-rule="evenodd" d="M13.3333 2.5C13.5543 2.5 13.7663 2.5878 13.9226 2.74408C14.0789 2.90036 14.1667 3.11232 14.1667 3.33333V4.16667H15.8333C16.2754 4.16667 16.6993 4.34226 17.0118 4.65482C17.3244 4.96738 17.5 5.39131 17.5 5.83333V10.44C16.5474 9.58849 15.305 9.13395 14.0279 9.16969C12.7507 9.20544 11.5357 9.72875 10.6322 10.6322C9.72875 11.5357 9.20544 12.7507 9.16969 14.0279C9.13395 15.305 9.58849 16.5474 10.44 17.5H4.16667C3.72464 17.5 3.30072 17.3244 2.98816 17.0118C2.67559 16.6993 2.5 16.2754 2.5 15.8333V5.83333C2.5 5.39131 2.67559 4.96738 2.98816 4.65482C3.30072 4.34226 3.72464 4.16667 4.16667 4.16667H5.83333V3.33333C5.83333 3.11232 5.92113 2.90036 6.07741 2.74408C6.23369 2.5878 6.44565 2.5 6.66667 2.5C6.88768 2.5 7.09964 2.5878 7.25592 2.74408C7.4122 2.90036 7.5 3.11232 7.5 3.33333V4.16667H12.5V3.33333C12.5 3.11232 12.5878 2.90036 12.7441 2.74408C12.9004 2.5878 13.1123 2.5 13.3333 2.5ZM14.1667 10.8333C15.0507 10.8333 15.8986 11.1845 16.5237 11.8096C17.1488 12.4348 17.5 13.2826 17.5 14.1667C17.5 15.0507 17.1488 15.8986 16.5237 16.5237C15.8986 17.1488 15.0507 17.5 14.1667 17.5C13.2826 17.5 12.4348 17.1488 11.8096 16.5237C11.1845 15.8986 10.8333 15.0507 10.8333 14.1667C10.8333 13.2826 11.1845 12.4348 11.8096 11.8096C12.4348 11.1845 13.2826 10.8333 14.1667 10.8333ZM14.1667 12.0833C13.9626 12.0834 13.7656 12.1583 13.613 12.2939C13.4605 12.4296 13.363 12.6165 13.3392 12.8192L13.3333 12.9167V14.1667C13.3334 14.3708 13.4083 14.5678 13.5439 14.7203C13.6796 14.8728 13.8665 14.9703 14.0692 14.9942L14.1667 15H15C15.2124 14.9998 15.4167 14.9184 15.5711 14.7726C15.7256 14.6268 15.8185 14.4275 15.831 14.2155C15.8434 14.0035 15.7744 13.7947 15.6381 13.6318C15.5018 13.4689 15.3084 13.3643 15.0975 13.3392L15 13.3333V12.9167C15 12.6957 14.9122 12.4837 14.7559 12.3274C14.5996 12.1711 14.3877 12.0833 14.1667 12.0833ZM7.08333 11.6667H6.66667C6.44565 11.6667 6.23369 11.7545 6.07741 11.9107C5.92113 12.067 5.83333 12.279 5.83333 12.5C5.83333 12.721 5.92113 12.933 6.07741 13.0893C6.23369 13.2455 6.44565 13.3333 6.66667 13.3333H7.08333C7.30435 13.3333 7.51631 13.2455 7.67259 13.0893C7.82887 12.933 7.91667 12.721 7.91667 12.5C7.91667 12.279 7.82887 12.067 7.67259 11.9107C7.51631 11.7545 7.30435 11.6667 7.08333 11.6667ZM9.16667 8.33333H6.66667C6.45427 8.33357 6.24997 8.4149 6.09553 8.56071C5.94108 8.70651 5.84814 8.90579 5.83569 9.11783C5.82324 9.32986 5.89223 9.53865 6.02855 9.70153C6.16488 9.8644 6.35825 9.96908 6.56917 9.99417L6.66667 10H9.16667C9.37907 9.99976 9.58336 9.91843 9.73781 9.77263C9.89225 9.62682 9.9852 9.42754 9.99764 9.2155C10.0101 9.00347 9.9411 8.79468 9.80478 8.63181C9.66845 8.46893 9.47508 8.36425 9.26417 8.33917L9.16667 8.33333Z" fill="#000125"/>
</svg>
