<svg width="17" height="17" viewBox="0 0 17 17" fill="none" xmlns="http://www.w3.org/2000/svg">
<path d="M16 11V2.66667C16 2.22464 15.8244 1.80072 15.5118 1.48816C15.1993 1.17559 14.7754 1 14.3333 1H2.66667C2.22464 1 1.80072 1.17559 1.48816 1.48816C1.17559 1.80072 1 2.22464 1 2.66667V14.3333C1 14.7754 1.17559 15.1993 1.48816 15.5118C1.80072 15.8244 2.22464 16 2.66667 16H11M16 11V11.1433C15.9999 11.5853 15.8242 12.0092 15.5117 12.3217L12.3217 15.5117C12.0092 15.8242 11.5853 15.9999 11.1433 16H11M16 11H12.6667C12.2246 11 11.8007 11.1756 11.4882 11.4882C11.1756 11.8007 11 12.2246 11 12.6667V16M4.33333 4.33333H12.6667M4.33333 7.66667H12.6667M4.33333 11H7.66667" stroke="#B3B3B3" stroke-width="1.66667" stroke-linecap="round" stroke-linejoin="round"/>
</svg>
