<svg width="20" height="20" viewBox="0 0 20 20" fill="none" xmlns="http://www.w3.org/2000/svg">
<rect x="0.166667" y="0.166667" width="19.6667" height="19.6667" rx="9.83333" fill="white"/>
<rect x="0.166667" y="0.166667" width="19.6667" height="19.6667" rx="9.83333" stroke="url(#paint0_linear_119_4928)" stroke-width="0.333333"/>
<path d="M15.1141 8.57861H14.6666V8.55556H9.66664V10.7778H12.8064C12.3483 12.0714 11.1175 13 9.66664 13C7.82581 13 6.33331 11.5075 6.33331 9.66667C6.33331 7.82584 7.82581 6.33334 9.66664 6.33334C10.5164 6.33334 11.2894 6.65389 11.878 7.1775L13.4494 5.60611C12.4572 4.68139 11.13 4.11111 9.66664 4.11111C6.59858 4.11111 4.11108 6.59861 4.11108 9.66667C4.11108 12.7347 6.59858 15.2222 9.66664 15.2222C12.7347 15.2222 15.2222 12.7347 15.2222 9.66667C15.2222 9.29417 15.1839 8.93056 15.1141 8.57861Z" fill="#FFC107"/>
<path d="M4.75171 7.08084L6.57699 8.41945C7.07088 7.19667 8.26699 6.33334 9.66671 6.33334C10.5164 6.33334 11.2895 6.65389 11.8781 7.1775L13.4495 5.60611C12.4573 4.68139 11.13 4.11111 9.66671 4.11111C7.53282 4.11111 5.68226 5.31584 4.75171 7.08084Z" fill="#FF3D00"/>
<path d="M9.66666 15.2222C11.1017 15.2222 12.4055 14.673 13.3914 13.78L11.6719 12.325C11.0954 12.7634 10.391 13.0006 9.66666 13C8.22166 13 6.99471 12.0786 6.53249 10.7928L4.72083 12.1886C5.64027 13.9878 7.50749 15.2222 9.66666 15.2222Z" fill="#4CAF50"/>
<path d="M15.1141 8.5786H14.6666V8.55554H9.66663V10.7778H12.8063C12.5872 11.3934 12.1926 11.9314 11.6711 12.3253L11.6719 12.3247L13.3913 13.7797C13.2697 13.8903 15.2222 12.4444 15.2222 9.66665C15.2222 9.29415 15.1838 8.93054 15.1141 8.5786Z" fill="#1976D2"/>
<defs>
<linearGradient id="paint0_linear_119_4928" x1="10" y1="0" x2="10" y2="20" gradientUnits="userSpaceOnUse">
<stop stop-color="#FFC107"/>
<stop offset="1" stop-color="#1976D2"/>
</linearGradient>
</defs>
</svg>
