<svg width="25" height="25" viewBox="0 0 25 25" fill="none" xmlns="http://www.w3.org/2000/svg">
<path d="M18.5834 13.5139H13.5139V18.5834C13.5139 19.141 13.0577 19.5973 12.5001 19.5973C11.9424 19.5973 11.4862 19.141 11.4862 18.5834V13.5139H6.41672C5.85908 13.5139 5.40283 13.0577 5.40283 12.5001C5.40283 11.9424 5.85908 11.4862 6.41672 11.4862H11.4862V6.41672C11.4862 5.85908 11.9424 5.40283 12.5001 5.40283C13.0577 5.40283 13.5139 5.85908 13.5139 6.41672V11.4862H18.5834C19.141 11.4862 19.5973 11.9424 19.5973 12.5001C19.5973 13.0577 19.141 13.5139 18.5834 13.5139Z" fill="#F9F9F9"/>
</svg>
