<svg width="17" height="18" viewBox="0 0 17 18" fill="none" xmlns="http://www.w3.org/2000/svg">
<path d="M7.66666 13.1667H9.33333V8.16669H7.66666V13.1667ZM8.5 6.50002C8.73611 6.50002 8.93417 6.42002 9.09416 6.26002C9.25416 6.10002 9.33389 5.90224 9.33333 5.66669C9.33278 5.43113 9.25278 5.23335 9.09333 5.07335C8.93389 4.91335 8.73611 4.83335 8.5 4.83335C8.26389 4.83335 8.06611 4.91335 7.90666 5.07335C7.74722 5.23335 7.66722 5.43113 7.66666 5.66669C7.66611 5.90224 7.74611 6.1003 7.90666 6.26085C8.06722 6.42141 8.265 6.50113 8.5 6.50002ZM8.5 17.3334C7.34722 17.3334 6.26389 17.1145 5.25 16.6767C4.23611 16.2389 3.35417 15.6453 2.60417 14.8959C1.85417 14.1464 1.26055 13.2645 0.823332 12.25C0.38611 11.2356 0.167221 10.1522 0.166665 9.00002C0.16611 7.8478 0.384999 6.76447 0.823332 5.75002C1.26167 4.73558 1.85528 3.85363 2.60417 3.10419C3.35305 2.35474 4.235 1.76113 5.25 1.32335C6.265 0.885576 7.34833 0.666687 8.5 0.666687C9.65166 0.666687 10.735 0.885576 11.75 1.32335C12.765 1.76113 13.6469 2.35474 14.3958 3.10419C15.1447 3.85363 15.7386 4.73558 16.1775 5.75002C16.6164 6.76447 16.835 7.8478 16.8333 9.00002C16.8317 10.1522 16.6128 11.2356 16.1767 12.25C15.7406 13.2645 15.1469 14.1464 14.3958 14.8959C13.6447 15.6453 12.7628 16.2392 11.75 16.6775C10.7372 17.1159 9.65389 17.3345 8.5 17.3334ZM8.5 15.6667C10.3611 15.6667 11.9375 15.0209 13.2292 13.7292C14.5208 12.4375 15.1667 10.8611 15.1667 9.00002C15.1667 7.13891 14.5208 5.56252 13.2292 4.27085C11.9375 2.97919 10.3611 2.33335 8.5 2.33335C6.63889 2.33335 5.0625 2.97919 3.77083 4.27085C2.47917 5.56252 1.83333 7.13891 1.83333 9.00002C1.83333 10.8611 2.47917 12.4375 3.77083 13.7292C5.0625 15.0209 6.63889 15.6667 8.5 15.6667Z" fill="#FBBF10"/>
</svg>
