<svg width="4" height="15" viewBox="0 0 4 15" fill="none" xmlns="http://www.w3.org/2000/svg">
<path d="M0.333374 7.50001C0.333374 7.94204 0.508969 8.36596 0.82153 8.67852C1.13409 8.99108 1.55801 9.16668 2.00004 9.16668C2.44207 9.16668 2.86599 8.99108 3.17855 8.67852C3.49111 8.36596 3.66671 7.94204 3.66671 7.50001C3.66671 7.05798 3.49111 6.63406 3.17855 6.3215C2.86599 6.00894 2.44207 5.83334 2.00004 5.83334C1.55801 5.83334 1.13409 6.00894 0.82153 6.3215C0.508969 6.63406 0.333374 7.05798 0.333374 7.50001ZM0.333374 2.50001C0.333374 2.94204 0.508969 3.36596 0.82153 3.67852C1.13409 3.99108 1.55801 4.16668 2.00004 4.16668C2.44207 4.16668 2.86599 3.99108 3.17855 3.67852C3.49111 3.36596 3.66671 2.94204 3.66671 2.50001C3.66671 2.05798 3.49111 1.63406 3.17855 1.3215C2.86599 1.00894 2.44207 0.833344 2.00004 0.833344C1.55801 0.833344 1.13409 1.00894 0.82153 1.3215C0.508969 1.63406 0.333374 2.05798 0.333374 2.50001ZM0.333374 12.5C0.333374 12.942 0.508969 13.366 0.82153 13.6785C1.13409 13.9911 1.55801 14.1667 2.00004 14.1667C2.44207 14.1667 2.86599 13.9911 3.17855 13.6785C3.49111 13.366 3.66671 12.942 3.66671 12.5C3.66671 12.058 3.49111 11.6341 3.17855 11.3215C2.86599 11.0089 2.44207 10.8333 2.00004 10.8333C1.55801 10.8333 1.13409 11.0089 0.82153 11.3215C0.508969 11.6341 0.333374 12.058 0.333374 12.5Z" fill="#989898"/>
</svg>
