<svg width="20" height="20" viewBox="0 0 20 20" fill="none" xmlns="http://www.w3.org/2000/svg">
<path d="M17.5 12.5V4.16667C17.5 3.72464 17.3244 3.30072 17.0118 2.98816C16.6993 2.67559 16.2754 2.5 15.8333 2.5H4.16667C3.72464 2.5 3.30072 2.67559 2.98816 2.98816C2.67559 3.30072 2.5 3.72464 2.5 4.16667V15.8333C2.5 16.2754 2.67559 16.6993 2.98816 17.0118C3.30072 17.3244 3.72464 17.5 4.16667 17.5H12.5M17.5 12.5V12.6433C17.4999 13.0853 17.3242 13.5092 17.0117 13.8217L13.8217 17.0117C13.5092 17.3242 13.0853 17.4999 12.6433 17.5H12.5M17.5 12.5H14.1667C13.7246 12.5 13.3007 12.6756 12.9882 12.9882C12.6756 13.3007 12.5 13.7246 12.5 14.1667V17.5M5.83333 5.83333H14.1667M5.83333 9.16667H14.1667M5.83333 12.5H9.16667" stroke="#000125" stroke-width="1.66667" stroke-linecap="round" stroke-linejoin="round"/>
</svg>
