<svg width="20" height="20" viewBox="0 0 20 20" fill="none" xmlns="http://www.w3.org/2000/svg">
<path d="M10 9.16667C10.6593 9.16667 11.3038 8.97117 11.8519 8.6049C12.4001 8.23863 12.8273 7.71803 13.0796 7.10895C13.3319 6.49986 13.3979 5.82964 13.2693 5.18303C13.1407 4.53643 12.8232 3.94249 12.357 3.47631C11.8909 3.01014 11.2969 2.69267 10.6503 2.56405C10.0037 2.43543 9.3335 2.50144 8.72441 2.75374C8.11532 3.00603 7.59473 3.43327 7.22846 3.98143C6.86218 4.5296 6.66669 5.17406 6.66669 5.83334C6.66669 6.71739 7.01788 7.56524 7.643 8.19036C8.26812 8.81548 9.11597 9.16667 10 9.16667ZM10 4.16667C10.3297 4.16667 10.6519 4.26442 10.926 4.44755C11.2001 4.63069 11.4137 4.89099 11.5398 5.19553C11.666 5.50007 11.699 5.83518 11.6347 6.15849C11.5704 6.48179 11.4116 6.77876 11.1785 7.01185C10.9454 7.24493 10.6485 7.40367 10.3252 7.46798C10.0019 7.53229 9.66676 7.49928 9.36222 7.37313C9.05767 7.24699 8.79737 7.03337 8.61424 6.75929C8.4311 6.4852 8.33335 6.16297 8.33335 5.83334C8.33335 5.39131 8.50895 4.96738 8.82151 4.65482C9.13407 4.34226 9.55799 4.16667 10 4.16667ZM10 10.8333C8.45292 10.8333 6.96919 11.4479 5.87523 12.5419C4.78127 13.6358 4.16669 15.1196 4.16669 16.6667C4.16669 16.8877 4.25448 17.0996 4.41076 17.2559C4.56705 17.4122 4.77901 17.5 5.00002 17.5C5.22103 17.5 5.433 17.4122 5.58928 17.2559C5.74556 17.0996 5.83335 16.8877 5.83335 16.6667C5.83335 15.5616 6.27234 14.5018 7.05374 13.7204C7.83514 12.939 8.89495 12.5 10 12.5C11.1051 12.5 12.1649 12.939 12.9463 13.7204C13.7277 14.5018 14.1667 15.5616 14.1667 16.6667C14.1667 16.8877 14.2545 17.0996 14.4108 17.2559C14.567 17.4122 14.779 17.5 15 17.5C15.221 17.5 15.433 17.4122 15.5893 17.2559C15.7456 17.0996 15.8334 16.8877 15.8334 16.6667C15.8334 15.1196 15.2188 13.6358 14.1248 12.5419C13.0308 11.4479 11.5471 10.8333 10 10.8333Z" fill="#303030"/>
<path d="M10 9.16667C10.6593 9.16667 11.3038 8.97117 11.8519 8.6049C12.4001 8.23863 12.8273 7.71803 13.0796 7.10895C13.3319 6.49986 13.3979 5.82964 13.2693 5.18303C13.1407 4.53643 12.8232 3.94249 12.357 3.47631C11.8909 3.01014 11.2969 2.69267 10.6503 2.56405C10.0037 2.43543 9.3335 2.50144 8.72441 2.75374C8.11532 3.00603 7.59473 3.43327 7.22846 3.98143C6.86218 4.5296 6.66669 5.17406 6.66669 5.83334C6.66669 6.71739 7.01788 7.56524 7.643 8.19036C8.26812 8.81548 9.11597 9.16667 10 9.16667ZM10 4.16667C10.3297 4.16667 10.6519 4.26442 10.926 4.44755C11.2001 4.63069 11.4137 4.89099 11.5398 5.19553C11.666 5.50007 11.699 5.83518 11.6347 6.15849C11.5704 6.48179 11.4116 6.77876 11.1785 7.01185C10.9454 7.24493 10.6485 7.40367 10.3252 7.46798C10.0019 7.53229 9.66676 7.49928 9.36222 7.37313C9.05767 7.24699 8.79737 7.03337 8.61424 6.75929C8.4311 6.4852 8.33335 6.16297 8.33335 5.83334C8.33335 5.39131 8.50895 4.96738 8.82151 4.65482C9.13407 4.34226 9.55799 4.16667 10 4.16667ZM10 10.8333C8.45292 10.8333 6.96919 11.4479 5.87523 12.5419C4.78127 13.6358 4.16669 15.1196 4.16669 16.6667C4.16669 16.8877 4.25448 17.0996 4.41076 17.2559C4.56705 17.4122 4.77901 17.5 5.00002 17.5C5.22103 17.5 5.433 17.4122 5.58928 17.2559C5.74556 17.0996 5.83335 16.8877 5.83335 16.6667C5.83335 15.5616 6.27234 14.5018 7.05374 13.7204C7.83514 12.939 8.89495 12.5 10 12.5C11.1051 12.5 12.1649 12.939 12.9463 13.7204C13.7277 14.5018 14.1667 15.5616 14.1667 16.6667C14.1667 16.8877 14.2545 17.0996 14.4108 17.2559C14.567 17.4122 14.779 17.5 15 17.5C15.221 17.5 15.433 17.4122 15.5893 17.2559C15.7456 17.0996 15.8334 16.8877 15.8334 16.6667C15.8334 15.1196 15.2188 13.6358 14.1248 12.5419C13.0308 11.4479 11.5471 10.8333 10 10.8333Z" fill="black" fill-opacity="0.2"/>
</svg>
