<svg width="20" height="21" viewBox="0 0 20 21" fill="none" xmlns="http://www.w3.org/2000/svg">
<path fill-rule="evenodd" clip-rule="evenodd" d="M10 18.8506C12.1217 18.8506 14.1566 18.0077 15.6569 16.5074C17.1571 15.0071 18 12.9723 18 10.8506C18 8.72885 17.1571 6.69402 15.6569 5.19373C14.1566 3.69344 12.1217 2.85059 10 2.85059C7.87827 2.85059 5.84344 3.69344 4.34315 5.19373C2.84285 6.69402 2 8.72885 2 10.8506C2 12.9723 2.84285 15.0071 4.34315 16.5074C5.84344 18.0077 7.87827 18.8506 10 18.8506ZM9.555 8.01859C9.4044 7.91811 9.22935 7.8604 9.04852 7.85161C8.86769 7.84283 8.68786 7.8833 8.52823 7.96871C8.3686 8.05412 8.23516 8.18126 8.14213 8.33658C8.04909 8.49189 7.99997 8.66954 8 8.85059V12.8506C7.99997 13.0316 8.04909 13.2093 8.14213 13.3646C8.23516 13.5199 8.3686 13.647 8.52823 13.7325C8.68786 13.8179 8.86769 13.8583 9.04852 13.8496C9.22935 13.8408 9.4044 13.7831 9.555 13.6826L12.555 11.6826C12.692 11.5913 12.8043 11.4675 12.8819 11.3224C12.9596 11.1773 13.0002 11.0152 13.0002 10.8506C13.0002 10.686 12.9596 10.5239 12.8819 10.3788C12.8043 10.2336 12.692 10.1099 12.555 10.0186L9.555 8.01859Z" fill="#FBBF10"/>
</svg>
