<svg width="16" height="16" viewBox="0 0 16 16" fill="none" xmlns="http://www.w3.org/2000/svg">
<path fill-rule="evenodd" clip-rule="evenodd" d="M10 4C10 5.10457 9.10457 6 8 6C6.89543 6 6 5.10457 6 4C6 2.89543 6.89543 2 8 2C9.10457 2 10 2.89543 10 4ZM12 4C12 6.20914 10.2091 8 8 8C5.79086 8 4 6.20914 4 4C4 1.79086 5.79086 0 8 0C10.2091 0 12 1.79086 12 4ZM14 12.6635V14H2V12.6635C2 12.0027 2.46213 11.5051 3.026 11.4278C4.62733 11.2084 6.54789 11 8 11C9.45211 11 11.3727 11.2084 12.974 11.4278C13.5379 11.5051 14 12.0027 14 12.6635ZM0 12.6635C0 11.0493 1.15512 9.66558 2.75441 9.44637C4.37162 9.2247 6.40448 9 8 9C9.59552 9 11.6284 9.2247 13.2456 9.44637C14.8449 9.66558 16 11.0493 16 12.6635V15.5C16 15.7761 15.7761 16 15.5 16H0.5C0.223858 16 0 15.7761 0 15.5V12.6635Z" fill="#45484F"/>
</svg>
