<svg width="49" height="46" viewBox="0 0 49 46" fill="none" xmlns="http://www.w3.org/2000/svg">
<path fill-rule="evenodd" clip-rule="evenodd" d="M19.3834 8.69313L27.8156 0.260864L30.3385 2.78375L21.9063 11.216L32.1877 21.4974L29.5502 24.1349L29.5337 24.1184L17.4562 36.601L14.7756 34.0074L26.8959 21.4806L16.7286 11.3133L19.3661 8.67587L19.3834 8.69313Z" fill="#269745"/>
<path fill-rule="evenodd" clip-rule="evenodd" d="M38.0155 10.9271L47.7265 20.6382L47.69 20.6747L48.0397 21.0244L37.5493 31.5148L37.4159 31.3814L37.2656 31.537L30.272 24.7765L32.8643 22.0947L37.3542 26.435L42.8013 20.9879L37.9519 16.1384L33.8033 20.1878L31.198 17.5186L37.8853 10.9913L37.918 11.0247L38.0155 10.9271Z" fill="#FBBF10"/>
<path fill-rule="evenodd" clip-rule="evenodd" d="M15.3859 12.576L18.0233 15.2134L24.7907 21.9808L22.1533 24.6182L22.1464 24.6114L11.9622 34.7955L20.5145 43.3478L17.8771 45.9853L2.49115 30.5994L2.5643 30.5262L-1.42671e-05 27.9619L12.7485 15.2134L15.3859 12.576L15.3859 12.576ZM5.20174 28.035L9.32477 32.1581L19.5089 21.9739L15.3859 17.8509L5.20174 28.035Z" fill="#1A73E8"/>
</svg>
