<svg width="20" height="21" viewBox="0 0 20 21" fill="none" xmlns="http://www.w3.org/2000/svg">
<path d="M17.2583 16.9256L14.425 14.1006C15.3392 12.936 15.8352 11.4978 15.8333 10.0173C15.8333 8.69871 15.4423 7.40978 14.7098 6.31345C13.9773 5.21713 12.9361 4.36264 11.7179 3.85806C10.4997 3.35347 9.15927 3.22145 7.86607 3.47869C6.57286 3.73592 5.38497 4.37086 4.45262 5.30321C3.52027 6.23556 2.88534 7.42345 2.6281 8.71665C2.37087 10.0099 2.50289 11.3503 3.00747 12.5685C3.51206 13.7867 4.36654 14.8278 5.46287 15.5604C6.5592 16.2929 7.84813 16.6839 9.16667 16.6839C10.6472 16.6858 12.0854 16.1897 13.25 15.2756L16.075 18.1089C16.1525 18.187 16.2446 18.249 16.3462 18.2913C16.4477 18.3336 16.5567 18.3554 16.6667 18.3554C16.7767 18.3554 16.8856 18.3336 16.9871 18.2913C17.0887 18.249 17.1809 18.187 17.2583 18.1089C17.3364 18.0315 17.3984 17.9393 17.4407 17.8377C17.4831 17.7362 17.5048 17.6273 17.5048 17.5173C17.5048 17.4072 17.4831 17.2983 17.4407 17.1968C17.3984 17.0952 17.3364 17.0031 17.2583 16.9256ZM4.16667 10.0173C4.16667 9.02835 4.45991 8.06165 5.00932 7.2394C5.55873 6.41716 6.33962 5.7763 7.25325 5.39786C8.16688 5.01942 9.17222 4.9204 10.1421 5.11333C11.112 5.30626 12.0029 5.78246 12.7022 6.48172C13.4015 7.18098 13.8777 8.0719 14.0706 9.0418C14.2635 10.0117 14.1645 11.017 13.7861 11.9307C13.4076 12.8443 12.7668 13.6252 11.9445 14.1746C11.1223 14.724 10.1556 15.0173 9.16667 15.0173C7.84059 15.0173 6.56882 14.4905 5.63114 13.5528C4.69345 12.6151 4.16667 11.3433 4.16667 10.0173Z" fill="#656565"/>
</svg>
