<svg width="20" height="20" viewBox="0 0 20 20" fill="none" xmlns="http://www.w3.org/2000/svg">
<path d="M7.49998 1.66669C7.10831 1.66669 6.72498 1.70586 6.35331 1.77919C6.23154 1.80341 6.11975 1.86335 6.03218 1.95136C5.94462 2.03937 5.88525 2.15147 5.86164 2.27336L5.56164 3.82253C5.55599 3.85183 5.54411 3.87958 5.52681 3.90389C5.5095 3.92821 5.48717 3.94852 5.46133 3.96345C5.43549 3.97839 5.40675 3.9876 5.37704 3.99046C5.34733 3.99331 5.31736 3.98976 5.28914 3.98003L3.79748 3.46503C3.68038 3.42438 3.55383 3.41948 3.43394 3.45094C3.31404 3.4824 3.20621 3.54879 3.12414 3.64169C2.61132 4.22263 2.21951 4.90001 1.97164 5.63419C1.93186 5.75174 1.92797 5.87847 1.96048 5.99824C1.99298 6.118 2.0604 6.22538 2.15414 6.30669L3.34748 7.34169C3.37006 7.36125 3.38818 7.38544 3.4006 7.41261C3.41301 7.43979 3.41944 7.46932 3.41944 7.49919C3.41944 7.52907 3.41301 7.5586 3.4006 7.58577C3.38818 7.61295 3.37006 7.63714 3.34748 7.65669L2.15414 8.69253C2.06041 8.77367 1.99294 8.88087 1.96029 9.00047C1.92764 9.12007 1.93131 9.24668 1.97081 9.36419C2.21893 10.0984 2.61103 10.7758 3.12414 11.3567C3.20604 11.4496 3.31369 11.516 3.43342 11.5476C3.55315 11.5792 3.67957 11.5746 3.79664 11.5342L5.28914 11.0192C5.31736 11.0095 5.34733 11.0059 5.37704 11.0088C5.40675 11.0116 5.43549 11.0208 5.46133 11.0358C5.48717 11.0507 5.5095 11.071 5.52681 11.0953C5.54411 11.1196 5.55599 11.1474 5.56164 11.1767L5.86164 12.7259C5.88525 12.8477 5.94462 12.9598 6.03218 13.0479C6.11975 13.1359 6.23154 13.1958 6.35331 13.22C7.11309 13.3717 7.89541 13.3711 8.65498 13.2184C8.77644 13.1938 8.88787 13.1338 8.97512 13.0458C9.06237 12.9578 9.12149 12.8459 9.14498 12.7242L9.44498 11.1767C9.45053 11.1473 9.46233 11.1195 9.4796 11.0951C9.49686 11.0707 9.51918 11.0502 9.54503 11.0352C9.57088 11.0202 9.59966 11.0109 9.62942 11.008C9.65917 11.0051 9.68921 11.0086 9.71748 11.0184L11.205 11.5325C11.322 11.5729 11.4485 11.5776 11.5682 11.546C11.6879 11.5144 11.7956 11.4479 11.8775 11.355C12.3909 10.7732 12.7831 10.0946 13.0308 9.35919C13.0701 9.24179 13.0737 9.11535 13.0411 8.99592C13.0084 8.87649 12.941 8.76944 12.8475 8.68836L11.6591 7.65669C11.6366 7.63714 11.6184 7.61295 11.606 7.58577C11.5936 7.5586 11.5872 7.52907 11.5872 7.49919C11.5872 7.46932 11.5936 7.43979 11.606 7.41261C11.6184 7.38544 11.6366 7.36125 11.6591 7.34169L12.8475 6.31003C12.9412 6.22888 13.0087 6.12169 13.0413 6.00209C13.074 5.88248 13.0703 5.75587 13.0308 5.63836C12.7831 4.90319 12.3909 4.22492 11.8775 3.64336C11.7955 3.55032 11.6877 3.48376 11.5678 3.45215C11.4479 3.42054 11.3213 3.42532 11.2041 3.46586L9.71748 3.97919C9.68921 3.98892 9.65917 3.99245 9.62942 3.98954C9.59966 3.98663 9.57088 3.97735 9.54503 3.96233C9.51918 3.94731 9.49686 3.9269 9.4796 3.90249C9.46233 3.87808 9.45053 3.85024 9.44498 3.82086L9.14498 2.27419C9.12149 2.15253 9.06237 2.04059 8.97512 1.9526C8.88787 1.86461 8.77644 1.80454 8.65498 1.78003C8.27468 1.70411 7.88778 1.66615 7.49998 1.66669ZM6.04248 7.50003C6.04248 7.11325 6.19612 6.74232 6.46961 6.46883C6.7431 6.19534 7.11404 6.04169 7.50081 6.04169C7.88758 6.04169 8.25852 6.19534 8.53201 6.46883C8.8055 6.74232 8.95914 7.11325 8.95914 7.50003C8.95914 7.8868 8.8055 8.25773 8.53201 8.53122C8.25852 8.80471 7.88758 8.95836 7.50081 8.95836C7.11404 8.95836 6.7431 8.80471 6.46961 8.53122C6.19612 8.25773 6.04248 7.8868 6.04248 7.50003ZM11.1758 12.32C11.2268 12.2552 11.2969 12.2081 11.3763 12.1857C11.4557 12.1632 11.5401 12.1665 11.6175 12.195L12.6666 12.5575C12.718 12.5754 12.7726 12.5819 12.8267 12.5768C12.8808 12.5716 12.9331 12.5549 12.9802 12.5277C13.0272 12.5005 13.0679 12.4635 13.0993 12.4191C13.1308 12.3748 13.1523 12.3242 13.1625 12.2709L13.3733 11.1809C13.3873 11.0997 13.4267 11.025 13.4859 10.9677C13.5451 10.9103 13.6209 10.8732 13.7025 10.8617C14.0107 10.8236 14.3225 10.8236 14.6308 10.8617C14.7124 10.8732 14.7882 10.9103 14.8474 10.9677C14.9065 11.025 14.946 11.0997 14.96 11.1809L15.1708 12.2709C15.1811 12.3242 15.2027 12.3747 15.2342 12.4189C15.2657 12.4632 15.3063 12.5001 15.3533 12.5273C15.4003 12.5545 15.4527 12.5712 15.5067 12.5765C15.5608 12.5817 15.6153 12.5752 15.6666 12.5575L16.7166 12.195C16.7938 12.1669 16.8779 12.1638 16.9569 12.1862C17.0359 12.2087 17.1058 12.2555 17.1566 12.32C17.3433 12.5659 17.5 12.8367 17.6225 13.1242C17.6883 13.28 17.6383 13.4575 17.5108 13.5684L16.6708 14.2975C16.63 14.3331 16.5972 14.377 16.5748 14.4263C16.5524 14.4757 16.5408 14.5292 16.5408 14.5834C16.5408 14.6375 16.5524 14.6911 16.5748 14.7404C16.5972 14.7897 16.63 14.8336 16.6708 14.8692L17.5108 15.5975C17.574 15.6502 17.6188 15.7216 17.6389 15.8014C17.659 15.8812 17.6532 15.9654 17.6225 16.0417C17.5008 16.33 17.3433 16.6 17.1566 16.8467C17.1058 16.9112 17.0359 16.958 16.9569 16.9805C16.8779 17.0029 16.7938 16.9998 16.7166 16.9717L15.6666 16.6092C15.6154 16.5915 15.5609 16.585 15.5069 16.5902C15.4529 16.5953 15.4006 16.612 15.3536 16.6391C15.3066 16.6662 15.266 16.7031 15.2344 16.7472C15.2029 16.7914 15.1812 16.8418 15.1708 16.895L14.96 17.9859C14.946 18.0671 14.9065 18.1417 14.8474 18.1991C14.7882 18.2564 14.7124 18.2935 14.6308 18.305C14.3225 18.3432 14.0107 18.3432 13.7025 18.305C13.6209 18.2935 13.5451 18.2564 13.4859 18.1991C13.4267 18.1417 13.3873 18.0671 13.3733 17.9859L13.1625 16.895C13.1522 16.8417 13.1306 16.7912 13.0991 16.747C13.0676 16.7028 13.0269 16.6659 12.9799 16.6387C12.9329 16.6116 12.8805 16.595 12.8265 16.5899C12.7724 16.5848 12.7179 16.5914 12.6666 16.6092L11.6166 16.9717C11.5395 16.9998 11.4554 17.0029 11.3764 16.9805C11.2974 16.958 11.2275 16.9112 11.1766 16.8467C10.9885 16.5988 10.832 16.3283 10.7108 16.0417C10.6801 15.9654 10.6743 15.8812 10.6944 15.8014C10.7145 15.7216 10.7593 15.6502 10.8225 15.5975L11.6625 14.8692C11.7033 14.8336 11.736 14.7897 11.7585 14.7404C11.7809 14.6911 11.7925 14.6375 11.7925 14.5834C11.7925 14.5292 11.7809 14.4757 11.7585 14.4263C11.736 14.377 11.7033 14.3331 11.6625 14.2975L10.8233 13.5684C10.76 13.5157 10.715 13.4444 10.6948 13.3646C10.6746 13.2848 10.6802 13.2006 10.7108 13.1242C10.8325 12.8359 10.9891 12.5659 11.1758 12.32ZM15.21 14.5834C15.21 14.4465 15.183 14.3109 15.1306 14.1844C15.0782 14.0579 15.0014 13.943 14.9046 13.8462C14.8078 13.7494 14.6929 13.6726 14.5664 13.6202C14.4399 13.5678 14.3044 13.5409 14.1675 13.5409C14.0306 13.5409 13.895 13.5678 13.7685 13.6202C13.642 13.6726 13.5271 13.7494 13.4303 13.8462C13.3335 13.943 13.2567 14.0579 13.2043 14.1844C13.1519 14.3109 13.125 14.4465 13.125 14.5834C13.125 14.8597 13.2348 15.1248 13.4302 15.3202C13.6256 15.5157 13.8907 15.6254 14.1671 15.6254C14.4434 15.6254 14.7085 15.5157 14.9039 15.3202C15.0994 15.1248 15.2091 14.8597 15.2091 14.5834" fill="#000125"/>
</svg>
