<svg width="106" height="55" viewBox="0 0 106 55" fill="none" xmlns="http://www.w3.org/2000/svg">
<path d="M44.5416 1.36539L44.6521 0.371503L44.5416 1.36539ZM55.1239 49.8183L55.2799 50.806L55.1239 49.8183ZM90.1239 22.8183L90.8611 22.1426L90.1239 22.8183ZM96.8175 54.4096C97.1441 54.855 97.7699 54.9513 98.2153 54.6247L105.473 49.3024C105.918 48.9758 106.015 48.35 105.688 47.9046C105.361 47.4593 104.736 47.363 104.29 47.6896L97.839 52.4205L93.1081 45.9692C92.7815 45.5239 92.1557 45.4276 91.7103 45.7542C91.2649 46.0808 91.1686 46.7066 91.4953 47.152L96.8175 54.4096ZM5.30085 49.1675C4.9459 48.7534 4.61131 48.2751 4.30105 47.7354L2.56718 48.7322C2.93202 49.3668 3.33697 49.9495 3.78234 50.4691L5.30085 49.1675ZM2.9188 44.3568C2.59999 43.2374 2.35845 42.0098 2.20322 40.6974L0.217068 40.9323C0.383461 42.339 0.644299 43.6722 0.995287 44.9047L2.9188 44.3568ZM2.00062 36.9343C2.00812 35.7105 2.0833 34.4454 2.23053 33.1544L0.243413 32.9278C0.0882388 34.2884 0.00860065 35.6251 0.000660181 36.922L2.00062 36.9343ZM2.84916 29.4172C3.11341 28.2007 3.44152 26.9759 3.83652 25.7547L1.93359 25.1392C1.51793 26.4243 1.17275 27.7128 0.894739 28.9927L2.84916 29.4172ZM5.18388 22.2078C5.68673 21.0627 6.25267 19.9318 6.88421 18.8253L5.14722 17.8339C4.4799 19.0031 3.8827 20.1966 3.35266 21.4037L5.18388 22.2078ZM8.93492 15.6484C9.66886 14.639 10.4658 13.6614 11.3279 12.7245L9.85624 11.3702C8.94046 12.3654 8.09502 13.4027 7.31732 14.4723L8.93492 15.6484ZM14.0393 10.107C14.9806 9.30091 15.9832 8.53886 17.0491 7.82849L15.9399 6.16423C14.8062 6.91979 13.7397 7.73043 12.7385 8.58789L14.0393 10.107ZM20.3019 5.92919C21.3985 5.37256 22.5514 4.86568 23.7624 4.41476L23.0645 2.54048C21.783 3.01763 20.5609 3.55482 19.3966 4.1458L20.3019 5.92919ZM27.3875 3.28266C28.5736 2.97926 29.8083 2.72542 31.093 2.52577L30.7858 0.549491C29.4391 0.758798 28.1414 1.02542 26.8919 1.34504L27.3875 3.28266ZM34.8684 2.10892C36.0973 2.02597 37.367 1.98944 38.6784 2.00263L38.6986 0.00273567C37.337 -0.0109662 36.0156 0.026935 34.7337 0.113459L34.8684 2.10892ZM42.4961 2.17508C43.1322 2.22531 43.7772 2.2866 44.4312 2.35927L44.6521 0.371503C43.9773 0.296529 43.3112 0.233219 42.6536 0.181287L42.4961 2.17508ZM44.4312 2.35927C45.0783 2.43117 45.7138 2.51216 46.3378 2.60193L46.6226 0.622308C45.977 0.529434 45.3202 0.445737 44.6521 0.371503L44.4312 2.35927ZM50.0582 3.26774C51.3286 3.54227 52.544 3.85616 53.7055 4.20599L54.2823 2.29097C53.0683 1.9253 51.8013 1.59825 50.4807 1.31286L50.0582 3.26774ZM57.2412 5.4447C58.4467 5.93108 59.5823 6.46025 60.6497 7.02707L61.5877 5.26067C60.4567 4.66009 59.2577 4.10163 57.9895 3.58997L57.2412 5.4447ZM63.8386 8.96584C64.8913 9.69685 65.8583 10.4699 66.7419 11.2776L68.0912 9.80137C67.1403 8.93215 66.1035 8.10366 64.9793 7.32305L63.8386 8.96584ZM69.2851 13.9677C70.0823 14.9494 70.7785 15.9659 71.3768 17.0072L73.1109 16.0108C72.4587 14.8758 71.7018 13.771 70.8376 12.7069L69.2851 13.9677ZM72.9346 20.3375C73.3638 21.5049 73.6837 22.6902 73.8979 23.8812L75.8663 23.5271C75.6316 22.2221 75.2812 20.9244 74.8118 19.6474L72.9346 20.3375ZM74.2273 27.5393C74.2291 28.7703 74.1218 29.9943 73.9089 31.1979L75.8784 31.5462C76.1117 30.2272 76.2293 28.8855 76.2273 27.5363L74.2273 27.5393ZM72.9538 34.7437C72.5338 35.8904 72.0124 37.0031 71.3932 38.0682L73.1222 39.0734C73.8004 37.9068 74.3716 36.6879 74.8318 35.4316L72.9538 34.7437ZM69.2767 41.0707C68.4953 41.9963 67.6258 42.8653 66.6712 43.6653L67.9559 45.1982C68.9987 44.3241 69.9497 43.3739 70.805 42.3609L69.2767 41.0707ZM63.6582 45.7865C62.6231 46.3936 61.5167 46.9317 60.3413 47.3906L61.0687 49.2537C62.3416 48.7567 63.5432 48.1726 64.67 47.5117L63.6582 45.7865ZM56.8008 48.4768C56.2039 48.6136 55.5929 48.7318 54.968 48.8305L55.2799 50.806C55.9496 50.7003 56.6056 50.5734 57.2476 50.4262L56.8008 48.4768ZM54.968 48.8305C54.3738 48.9243 53.78 48.9868 53.1884 49.0193L53.2981 51.0163C53.9568 50.9801 54.618 50.9105 55.2799 50.806L54.968 48.8305ZM49.6174 48.8574C48.4288 48.6847 47.263 48.3964 46.1353 48.004L45.4781 49.893C46.7225 50.3259 48.012 50.6452 49.3299 50.8366L49.6174 48.8574ZM42.8645 46.5168C41.8191 45.9214 40.8297 45.2328 39.912 44.4637L38.6273 45.9965C39.6367 46.8425 40.7249 47.5999 41.8747 48.2547L42.8645 46.5168ZM37.3799 41.9153C36.6155 40.9892 35.9416 39.9954 35.3734 38.9477L33.6152 39.901C34.2467 41.0655 34.9935 42.1659 35.8373 43.1884L37.3799 41.9153ZM34.0013 35.6547C33.6641 34.5256 33.4451 33.3562 33.3589 32.1588L31.364 32.3024C31.461 33.6494 31.7073 34.9623 32.085 36.227L34.0013 35.6547ZM33.4964 28.6065C33.666 27.4711 33.9593 26.3183 34.3896 25.1572L32.5142 24.4622C32.0367 25.7507 31.7086 27.0374 31.5183 28.3111L33.4964 28.6065ZM35.9494 21.9155C36.2508 21.4093 36.5804 20.9029 36.9394 20.397L35.3084 19.2395C34.9191 19.788 34.5603 20.3392 34.231 20.8923L35.9494 21.9155ZM36.9394 20.397C37.3329 19.8426 37.7547 19.3179 38.2029 18.822L36.719 17.481C36.2188 18.0346 35.7477 18.6205 35.3084 19.2395L36.9394 20.397ZM41.2343 16.154C42.3307 15.3852 43.5197 14.7224 44.7859 14.1604L43.9745 12.3324C42.5998 12.9425 41.2967 13.6676 40.086 14.5165L41.2343 16.154ZM48.664 12.8077C49.9715 12.461 51.331 12.1984 52.7287 12.0154L52.4691 10.0323C50.9931 10.2255 49.5486 10.504 48.1513 10.8746L48.664 12.8077ZM56.8817 11.7035C58.2586 11.6722 59.6553 11.7079 61.0597 11.8062L61.1994 9.81108C59.7367 9.70868 58.2781 9.67122 56.8362 9.70405L56.8817 11.7035ZM65.221 12.2749C66.6024 12.4883 67.9782 12.7576 69.3366 13.0784L69.7962 11.132C68.3877 10.7994 66.9605 10.5199 65.5263 10.2984L65.221 12.2749ZM73.3783 14.2004C74.7269 14.6322 76.0433 15.1132 77.3148 15.6383L78.0782 13.7897C76.7551 13.2433 75.3874 12.7436 73.9882 12.2956L73.3783 14.2004ZM81.103 17.4041C82.3716 18.0692 83.569 18.7792 84.6796 19.5269L85.7966 17.8679C84.6206 17.0761 83.3597 16.3291 82.0317 15.6328L81.103 17.4041ZM87.9405 22.0604C88.4586 22.5299 88.9415 23.0083 89.3868 23.494L90.8611 22.1426C90.3712 21.6082 89.8441 21.0864 89.2836 20.5784L87.9405 22.0604ZM89.3868 23.494C89.8545 24.0043 90.2968 24.5151 90.7149 25.0257L92.2624 23.7587C91.8204 23.2189 91.3537 22.68 90.8611 22.1426L89.3868 23.494ZM93.075 28.2912C93.823 29.4761 94.4552 30.6555 94.9874 31.823L96.8072 30.9935C96.2378 29.7443 95.5627 28.4852 94.7662 27.2236L93.075 28.2912ZM96.3887 35.5792C96.7809 36.9122 97.0596 38.2219 97.2492 39.498L99.2275 39.204C99.0252 37.8427 98.7274 36.4422 98.3074 35.0147L96.3887 35.5792ZM97.5829 43.512C97.613 44.9298 97.5545 46.2849 97.4481 47.5604L99.4412 47.7266C99.5523 46.395 99.6143 44.9691 99.5824 43.4695L97.5829 43.512ZM96.9543 51.617C96.8424 52.3569 96.7348 53.0213 96.6355 53.6662L98.6123 53.9703C98.7068 53.3561 98.821 52.6487 98.9318 51.9161L96.9543 51.617Z" fill="#EAF1FB"/>
</svg>
